<?xml version="1.0" standalone="no"?>
<svg viewBox="0 0 200 200" xmlns="http://www.w3.org/2000/svg">
  <path fill="#E53939" d="M30,-47C42.9,-38.4,60.1,-36.9,66.4,-28.7C72.6,-20.5,67.8,-5.7,63.4,7.5C58.9,20.7,54.9,32.4,48.4,44.4C41.8,56.3,32.8,68.6,21.3,71.5C9.8,74.4,-4.1,67.9,-19.3,64.2C-34.5,60.5,-51,59.5,-56,50.4C-60.9,41.3,-54.3,24.1,-56.4,8.2C-58.5,-7.6,-69.3,-22.1,-67.3,-32.4C-65.2,-42.7,-50.3,-48.9,-36.9,-57.2C-23.6,-65.6,-11.8,-76.2,-1.6,-73.7C8.6,-71.2,17.1,-55.5,30,-47Z" transform="translate(100 100)" />
</svg>
