<?xml version="1.0" standalone="no"?>
<svg viewBox="0 0 200 200" xmlns="http://www.w3.org/2000/svg">
  <path fill="#E53939" d="M41.1,-59.7C54.1,-55.7,65.9,-45.6,66.5,-33.5C67.1,-21.5,56.4,-7.5,52.3,6.1C48.1,19.7,50.6,32.8,46.2,42.5C41.7,52.2,30.4,58.5,17.3,65.1C4.3,71.7,-10.4,78.6,-24.8,77.5C-39.2,76.5,-53.3,67.5,-64.5,55.4C-75.7,43.4,-83.8,28.3,-86.7,12.1C-89.6,-4.1,-87.1,-21.4,-75.5,-29.4C-63.9,-37.4,-43.2,-36.2,-29.1,-39.7C-15,-43.1,-7.5,-51.3,3.3,-56.4C14.1,-61.6,28.2,-63.7,41.1,-59.7Z" transform="translate(100 100)" />
</svg>
