<?xml version="1.0" standalone="no"?>
<svg viewBox="0 0 200 200" xmlns="http://www.w3.org/2000/svg">
  <path fill="#E53939" d="M40.3,-63.5C54,-53.9,68.1,-45.7,73.2,-33.7C78.3,-21.7,74.4,-5.8,70.1,8.7C65.8,23.1,61.2,36.1,52.8,45.7C44.4,55.3,32.1,61.5,19.7,63.5C7.2,65.6,-5.4,63.6,-17.4,59.8C-29.3,56,-40.5,50.4,-50.6,42C-60.7,33.6,-69.7,22.5,-70.4,10.8C-71.1,-1,-63.4,-13.2,-58.3,-27.5C-53.1,-41.7,-50.3,-57.9,-41,-69.5C-31.7,-81.1,-15.9,-88.1,-1.3,-86.1C13.3,-84.1,26.6,-73.1,40.3,-63.5Z" transform="translate(100 100)" />
</svg>
